<svg width="202" height="27" viewBox="0 0 202 27" fill="none" xmlns="http://www.w3.org/2000/svg">
<path d="M185.025 22.544C183.641 22.544 182.345 22.28 181.137 21.752C179.929 21.224 178.869 20.492 177.957 19.556C177.045 18.612 176.329 17.52 175.809 16.28C175.297 15.032 175.041 13.696 175.041 12.272C175.041 10.848 175.297 9.516 175.809 8.276C176.329 7.028 177.045 5.936 177.957 5C178.869 4.056 179.929 3.32 181.137 2.792C182.345 2.264 183.641 2 185.025 2C186.409 2 187.705 2.264 188.913 2.792C190.121 3.32 191.181 4.056 192.093 5C193.005 5.936 193.717 7.028 194.229 8.276C194.749 9.516 195.009 10.848 195.009 12.272C195.009 13.696 194.749 15.032 194.229 16.28C193.717 17.52 193.005 18.612 192.093 19.556C191.181 20.492 190.121 21.224 188.913 21.752C187.705 22.28 186.409 22.544 185.025 22.544ZM185.013 18.8C185.861 18.8 186.637 18.64 187.341 18.32C188.045 18 188.657 17.548 189.177 16.964C189.697 16.38 190.101 15.692 190.389 14.9C190.677 14.1 190.821 13.224 190.821 12.272C190.821 11.32 190.677 10.448 190.389 9.656C190.101 8.856 189.697 8.164 189.177 7.58C188.657 6.996 188.045 6.544 187.341 6.224C186.637 5.904 185.861 5.744 185.013 5.744C184.181 5.744 183.409 5.904 182.697 6.224C181.993 6.544 181.381 6.996 180.861 7.58C180.341 8.164 179.937 8.856 179.649 9.656C179.369 10.448 179.229 11.32 179.229 12.272C179.229 13.224 179.369 14.1 179.649 14.9C179.937 15.692 180.341 16.38 180.861 16.964C181.381 17.548 181.993 18 182.697 18.32C183.409 18.64 184.181 18.8 185.013 18.8Z" fill="white"/>
<path d="M149.778 22.1604V2.36035H153.666L162.198 15.6804V2.36035H166.086V22.1604H162.198L153.666 8.84035V22.1604H149.778Z" fill="white"/>
<path d="M131.754 22.544C130.394 22.544 129.126 22.284 127.95 21.764C126.774 21.244 125.746 20.52 124.866 19.592C123.986 18.656 123.297 17.564 122.801 16.316C122.305 15.068 122.057 13.716 122.057 12.26C122.057 10.868 122.29 9.556 122.754 8.324C123.218 7.084 123.885 5.992 124.757 5.048C125.629 4.096 126.681 3.352 127.913 2.816C129.145 2.272 130.525 2 132.053 2C132.917 2 133.786 2.096 134.658 2.288C135.538 2.48 136.381 2.764 137.189 3.14C137.997 3.508 138.725 3.96 139.373 4.496L137.549 7.508C136.853 6.86 136.01 6.36 135.018 6.008C134.034 5.648 133.062 5.468 132.102 5.468C131.158 5.468 130.321 5.636 129.593 5.972C128.873 6.3 128.266 6.764 127.77 7.364C127.274 7.964 126.898 8.668 126.642 9.476C126.386 10.276 126.257 11.148 126.257 12.092C126.257 13.124 126.401 14.06 126.689 14.9C126.977 15.74 127.377 16.464 127.889 17.072C128.409 17.68 129.014 18.148 129.701 18.476C130.398 18.804 131.145 18.968 131.945 18.968C132.585 18.968 133.202 18.864 133.794 18.656C134.394 18.44 134.925 18.14 135.389 17.756C135.853 17.372 136.221 16.92 136.493 16.4C136.766 15.88 136.901 15.312 136.901 14.696V14.396H131.705V11.384H140.861V14.384C140.861 15.592 140.609 16.696 140.105 17.696C139.609 18.688 138.929 19.548 138.065 20.276C137.201 20.996 136.225 21.556 135.137 21.956C134.049 22.348 132.922 22.544 131.754 22.544Z" fill="white"/>
<path d="M109.169 22.1604V2.36035H113.057V22.1604H109.169Z" fill="white"/>
<path d="M92.9694 22.544C92.0494 22.544 91.2014 22.44 90.4254 22.232C89.6494 22.032 88.9534 21.78 88.3374 21.476C87.7294 21.164 87.2054 20.844 86.7654 20.516C86.3254 20.188 85.9774 19.9 85.7214 19.652L87.7134 16.436C87.9774 16.668 88.2934 16.928 88.6614 17.216C89.0294 17.504 89.4414 17.78 89.8974 18.044C90.3534 18.3 90.8454 18.516 91.3734 18.692C91.9094 18.86 92.4774 18.944 93.0774 18.944C93.6374 18.944 94.1294 18.856 94.5534 18.68C94.9854 18.504 95.3254 18.244 95.5734 17.9C95.8214 17.548 95.9454 17.112 95.9454 16.592C95.9454 16.12 95.8454 15.72 95.6454 15.392C95.4454 15.056 95.1494 14.756 94.7574 14.492C94.3734 14.22 93.8974 13.956 93.3294 13.7C92.7694 13.436 92.1294 13.148 91.4094 12.836C90.8734 12.596 90.3614 12.324 89.8734 12.02C89.3934 11.708 88.9654 11.348 88.5894 10.94C88.2134 10.532 87.9134 10.072 87.6894 9.56C87.4734 9.04 87.3654 8.46 87.3654 7.82C87.3654 7.06 87.5174 6.332 87.8214 5.636C88.1254 4.94 88.5574 4.32 89.1174 3.776C89.6854 3.232 90.3574 2.8 91.1334 2.48C91.9174 2.16 92.7894 2 93.7494 2C94.4694 2 95.1894 2.096 95.9094 2.288C96.6294 2.48 97.3014 2.732 97.9254 3.044C98.5494 3.356 99.0774 3.696 99.5094 4.064L97.8894 7.112C97.5454 6.816 97.1534 6.552 96.7134 6.32C96.2814 6.08 95.8174 5.888 95.3214 5.744C94.8334 5.6 94.3374 5.528 93.8334 5.528C93.2654 5.528 92.7814 5.628 92.3814 5.828C91.9894 6.028 91.6854 6.296 91.4694 6.632C91.2614 6.96 91.1574 7.328 91.1574 7.736C91.1574 8.072 91.2254 8.36 91.3614 8.6C91.5054 8.832 91.7054 9.036 91.9614 9.212C92.2174 9.38 92.5254 9.544 92.8854 9.704C93.2454 9.856 93.6414 10.02 94.0734 10.196C95.0014 10.588 95.8414 10.976 96.5934 11.36C97.3454 11.744 97.9894 12.172 98.5254 12.644C99.0614 13.108 99.4694 13.652 99.7494 14.276C100.037 14.9 100.181 15.644 100.181 16.508C100.181 17.772 99.8774 18.856 99.2694 19.76C98.6694 20.664 97.8294 21.356 96.7494 21.836C95.6694 22.308 94.4094 22.544 92.9694 22.544Z" fill="white"/>
<path d="M67.0359 22.1604V2.36035H78.0519V5.76835H70.924V10.5324H77.764V13.9404H70.924V18.7524H78.0519V22.1604H67.0359Z" fill="white"/>
<path d="M42.7 22.1604V2.36035H48.136C49.544 2.36035 50.852 2.61235 52.06 3.11635C53.268 3.62035 54.324 4.32435 55.228 5.22835C56.14 6.13235 56.848 7.18435 57.352 8.38435C57.864 9.58435 58.12 10.8804 58.12 12.2724C58.12 13.6724 57.868 14.9724 57.364 16.1724C56.86 17.3644 56.152 18.4124 55.24 19.3164C54.336 20.2124 53.276 20.9124 52.06 21.4164C50.852 21.9124 49.544 22.1604 48.136 22.1604H42.7ZM46.588 18.6804H47.704C48.6 18.6804 49.428 18.5204 50.188 18.2004C50.948 17.8804 51.608 17.4324 52.168 16.8564C52.728 16.2804 53.164 15.6044 53.476 14.8284C53.788 14.0444 53.944 13.1884 53.944 12.2604C53.944 11.3404 53.788 10.4924 53.476 9.71635C53.164 8.93235 52.728 8.25235 52.168 7.67635C51.608 7.09235 50.948 6.64035 50.188 6.32035C49.428 6.00035 48.6 5.84035 47.704 5.84035H46.588V18.6804Z" fill="white"/>
<circle cx="12" cy="12" r="12" transform="matrix(0 -1 -1 0 24 24)" fill="url(#paint0_angular_0_5271)"/>
<defs>
<radialGradient id="paint0_angular_0_5271" cx="0" cy="0" r="1" gradientUnits="userSpaceOnUse" gradientTransform="translate(12 12) scale(12)">
<stop stop-color="#E7816B" stop-opacity="0.01"/>
<stop offset="0.999287" stop-color="#E7816B"/>
</radialGradient>
</defs>
</svg>
